<?xml version="1.0" standalone="no"?>
<!DOCTYPE svg PUBLIC "-//W3C//DTD SVG 20010904//EN"
 "http://www.w3.org/TR/2001/REC-SVG-20010904/DTD/svg10.dtd">
<svg version="1.0" xmlns="http://www.w3.org/2000/svg"
 width="512.000000pt" height="512.000000pt" viewBox="0 0 512.000000 512.000000"
 preserveAspectRatio="xMidYMid meet">
<metadata>
Created by potrace 1.14, written by Peter Selinger 2001-2017
</metadata>
<g transform="translate(0.000000,512.000000) scale(0.100000,-0.100000)"
fill="#000000" stroke="none">
<path d="M1448 4615 c-2 -1 -41 -5 -86 -9 -174 -13 -371 -70 -537 -153 -346
-174 -626 -498 -745 -864 -17 -50 -32 -102 -35 -116 -2 -15 -9 -49 -14 -77 -6
-28 -13 -69 -17 -91 -12 -71 -12 -1665 0 -1666 6 -1 194 -2 419 -3 l407 -2 1
56 c1 30 0 64 -1 74 -1 12 3 17 12 13 112 -47 155 -63 223 -83 44 -12 98 -26
120 -30 22 -3 48 -8 59 -10 138 -25 296 -24 483 1 72 9 229 53 318 89 l84 33
3 -71 3 -71 405 -1 c223 0 410 2 417 4 9 3 12 177 12 745 -1 408 2 769 6 802
32 299 251 534 545 581 106 17 257 -2 350 -44 19 -8 38 -16 41 -16 21 -3 123
-79 170 -127 70 -71 119 -151 156 -254 l28 -80 2 -799 c2 -440 6 -802 9 -805
3 -3 191 -6 418 -6 l413 0 -1 840 -2 840 -28 120 c-69 296 -214 557 -424 762
-45 44 -205 173 -214 173 -3 0 -42 22 -87 50 -120 72 -303 139 -446 165 -16 2
-39 7 -50 9 -150 29 -365 24 -540 -14 -27 -6 -63 -13 -79 -16 -93 -18 -311
-116 -427 -192 -75 -49 -193 -144 -236 -190 l-22 -23 -33 32 c-78 76 -162 140
-267 207 -85 53 -293 143 -364 157 -9 2 -21 6 -26 9 -5 3 -26 8 -47 12 -22 3
-55 10 -75 15 -20 5 -81 12 -135 15 -54 3 -114 7 -131 8 -18 2 -34 2 -35 1z
m197 -858 c237 -59 422 -246 480 -484 24 -98 17 -249 -16 -352 -50 -157 -196
-319 -349 -389 -121 -54 -271 -72 -395 -46 -312 65 -531 340 -520 652 9 279
175 508 433 598 107 37 265 46 367 21z"/>
<path d="M1422 1096 c0 -433 1 -454 18 -459 11 -3 21 -2 24 1 3 3 6 58 6 122
0 174 1 174 163 13 120 -119 169 -155 182 -133 2 4 -58 71 -135 149 -77 77
-140 144 -140 149 0 4 47 54 105 112 58 58 105 108 105 112 0 5 -12 8 -26 8
-19 0 -53 -27 -137 -110 l-112 -110 -3 300 -2 300 -24 0 -23 0 -1 -454z"/>
<path d="M130 1147 c-19 -5 -45 -18 -57 -30 l-23 -20 0 20 c0 21 -24 38 -40
28 -5 -3 -8 -118 -8 -255 l1 -250 23 0 24 0 1 163 c0 89 2 180 4 201 11 102
148 134 214 50 20 -25 21 -39 21 -220 l0 -194 25 0 25 0 0 193 c0 173 2 195
20 224 36 60 137 64 190 9 28 -31 28 -31 29 -247 l1 -186 25 4 24 5 0 190 c0
226 -7 255 -75 294 -73 43 -178 30 -218 -27 l-15 -22 -36 32 c-20 17 -39 31
-43 31 -4 0 -23 4 -42 8 -19 5 -51 4 -70 -1z"/>
<path d="M2067 1148 c-120 -25 -195 -111 -205 -234 -6 -79 19 -153 70 -206
101 -105 286 -104 383 3 39 44 42 54 19 63 -11 4 -27 -4 -45 -24 -83 -86 -221
-97 -312 -24 -34 27 -66 98 -67 144 l0 35 233 0 232 0 3 24 c9 58 -57 159
-125 194 -50 26 -130 37 -186 25z m159 -69 c46 -22 94 -79 94 -111 0 -17 -15
-18 -200 -18 -154 0 -200 3 -200 13 1 28 54 98 90 117 61 33 148 33 216 -1z"/>
<path d="M2590 1147 c-69 -17 -113 -82 -99 -144 11 -52 49 -84 133 -117 109
-41 140 -84 110 -154 -30 -73 -163 -72 -222 2 -17 22 -21 24 -38 11 -19 -13
-19 -14 2 -42 45 -62 154 -90 227 -59 94 40 120 155 51 227 -15 16 -58 40 -96
55 -91 35 -121 61 -120 104 2 70 75 94 163 54 63 -28 80 13 19 46 -34 18 -95
26 -130 17z"/>
<path d="M3701 1144 c-70 -15 -128 -59 -165 -125 -27 -47 -31 -63 -30 -129 0
-98 34 -164 109 -216 93 -64 248 -51 325 26 21 21 22 21 24 -25 1 -25 5 -30
25 -30 l25 0 0 243 c1 211 -1 245 -15 252 -25 14 -40 -3 -34 -38 6 -38 3 -39
-38 -8 -66 50 -147 68 -226 50z m142 -55 c108 -56 152 -152 121 -261 -26 -86
-108 -148 -199 -148 -193 0 -287 227 -151 364 58 57 164 78 229 45z"/>
<path d="M4356 1148 c-132 -28 -211 -125 -209 -258 2 -147 96 -247 241 -257
50 -4 80 0 117 14 44 16 50 22 53 50 l3 31 -52 -25 c-114 -55 -241 -16 -296
91 -8 16 -17 54 -18 85 -7 121 64 208 182 224 41 6 138 -15 158 -34 16 -16 25
-10 25 16 0 50 -109 84 -204 63z"/>
<path d="M4786 1145 c-118 -30 -196 -138 -191 -265 6 -146 123 -255 269 -249
93 4 147 31 210 106 17 21 17 22 -3 33 -19 9 -26 6 -55 -24 -95 -101 -270 -89
-338 24 -31 50 -46 129 -26 131 7 0 114 1 238 2 l225 2 -2 38 c-3 36 -28 95
-55 127 -7 8 -32 27 -54 42 -62 40 -143 52 -218 33z m174 -65 c40 -20 100 -90
100 -117 0 -10 -40 -13 -205 -13 -113 0 -205 3 -205 7 0 3 11 25 25 49 25 43
72 79 123 94 41 13 116 3 162 -20z"/>
<path d="M914 1134 c-22 -8 -59 -34 -82 -57 -135 -137 -85 -367 93 -430 89
-31 185 -15 256 43 l39 31 0 -41 c0 -35 3 -40 24 -40 l23 0 0 250 c0 138 -3
250 -6 251 -3 0 -14 2 -23 4 -15 3 -18 -4 -18 -36 0 -42 -9 -49 -31 -22 -44
53 -190 78 -275 47z m189 -50 c134 -68 164 -231 63 -342 -103 -115 -308 -65
-352 84 -26 89 -8 158 58 221 61 59 158 74 231 37z"/>
<path d="M2914 1142 c-6 -4 -10 -144 -9 -378 l0 -371 22 0 c12 0 23 5 25 11 2
6 4 80 3 164 0 83 1 152 3 152 2 0 20 -13 40 -30 133 -106 324 -64 398 87 68
138 4 303 -140 358 -86 33 -232 3 -274 -56 -20 -29 -32 -23 -28 14 6 45 -13
67 -40 49z m343 -60 c75 -39 115 -103 116 -187 2 -225 -295 -299 -401 -100
-24 45 -24 141 -1 186 56 111 181 154 286 101z"/>
</g>
</svg>
